# File created by Blade
# Date/Time:  Wed Jan 21 17:34:04 2015
# Frame Rate: 120.000 fps
#------------------------------------------------------
:FULLY-SPECIFIED
:DEGREES
1220
root 19.013415 5.610411 -15.969983 -214.458355 10.172617 -140.834636
Spine 52.480560 -13.923672 24.069247
Head 22.452542 -16.509758 8.198018
LeftShoulder 0.885519 -14.872407 17.879595
LeftArm -35.549620 9.426533 -100.517364
LeftForeArm -14.741031 -0.000000 58.067336
LeftHand -14.491044 -0.000000 23.657223
LeftHandThumb1 -26.253704 0.000000 33.147579
RightShoulder -12.679273 -18.494626 7.931722
RightArm 4.603797 -28.070091 66.765424
RightForeArm -24.162521 -0.000000 47.307791
RightHand -14.967495 -0.000000 -15.825467
RightHandThumb1 -24.326973 -0.000000 -32.862282
LeftUpLeg -97.471713 30.072023 -40.649268
LeftLeg 129.799460 -0.000000 -0.000000
LeftFoot 35.459033 20.152698 7.837929
LeftToeBase 23.569301 -0.000000 -0.000000
RightUpLeg -92.052495 -18.372248 -7.394917
RightLeg 146.511496 -0.000000 -0.000000
RightFoot 36.393201 -12.898857 -0.894004
RightToeBase 1.447459 -0.000000 -0.000000
1221
root 18.999707 5.598027 -15.935428 -214.451114 10.454356 -141.115501
Spine 52.603559 -13.887625 24.059019
Head 22.376659 -16.026281 7.993771
LeftShoulder 0.871393 -14.876603 17.881191
LeftArm -35.317811 9.429701 -100.618314
LeftForeArm -14.864640 -0.000000 57.615701
LeftHand -14.421220 -0.000000 23.519357
LeftHandThumb1 -26.253704 0.000000 33.147579
RightShoulder -12.429482 -18.523547 7.472881
RightArm 4.511346 -28.124590 67.042330
RightForeArm -24.217307 -0.000000 47.352159
RightHand -14.991026 0.000000 -16.163531
RightHandThumb1 -24.326973 -0.000000 -32.862282
LeftUpLeg -97.726481 30.360864 -40.924167
LeftLeg 129.680356 -0.000000 -0.000000
LeftFoot 35.512202 20.250253 7.874435
LeftToeBase 23.525357 -0.000000 -0.000000
RightUpLeg -92.598641 -18.278672 -6.692073
RightLeg 146.944964 -0.000000 -0.000000
RightFoot 36.592802 -12.503577 -0.620017
RightToeBase 0.508151 -0.000000 -0.000000
1222
root 18.984889 5.586355 -15.899750 -214.386515 10.748343 -141.325482
Spine 52.645661 -13.864000 24.187136
Head 22.358854 -15.594661 7.694515
LeftShoulder 0.851425 -14.801746 17.843249
LeftArm -34.991381 9.465262 -100.707084
LeftForeArm -14.967588 -0.000000 57.156842
LeftHand -14.352472 -0.000000 23.362476
LeftHandThumb1 -26.253704 0.000000 33.147579
RightShoulder -12.170011 -18.501126 6.981117
RightArm 4.270987 -28.109818 67.380875
RightForeArm -24.226860 -0.000000 47.449291
RightHand -14.942981 -0.000000 -16.398169
RightHandThumb1 -24.326973 -0.000000 -32.862282
LeftUpLeg -98.002064 30.579498 -41.143439
LeftLeg 129.574540 -0.000000 -0.000000
LeftFoot 35.533406 20.262369 8.008348
LeftToeBase 23.609199 -0.000000 -0.000000
RightUpLeg -93.114858 -18.230708 -5.928785
RightLeg 147.344092 -0.000000 -0.000000
RightFoot 36.691899 -12.228672 -0.186806
RightToeBase 0.039670 -0.000000 -0.000000
1223
root 18.970799 5.574957 -15.864220 -214.318464 11.056246 -141.541508
Spine 52.701972 -13.852241 24.281708
Head 22.330284 -15.108537 7.393052
LeftShoulder 0.775369 -14.821205 17.847594
LeftArm -34.738010 9.434878 -100.824559
LeftForeArm -15.080631 -0.000000 56.639787
LeftHand -14.281926 -0.000000 23.154099
LeftHandThumb1 -26.253704 0.000000 33.147579
RightShoulder -11.911023 -18.623136 6.546119
RightArm 4.187954 -28.050331 67.594886
RightForeArm -24.215192 -0.000000 47.636772
RightHand -14.982121 -0.000000 -16.680468
RightHandThumb1 -24.326973 -0.000000 -32.862282
LeftUpLeg -98.300287 30.802203 -41.358955
LeftLeg 129.461028 -0.000000 -0.000000
LeftFoot 35.582515 20.321896 8.043810
LeftToeBase 23.682736 -0.000000 -0.000000
RightUpLeg -93.567534 -18.157082 -5.221818
RightLeg 147.737742 -0.000000 -0.000000
RightFoot 36.740080 -11.903024 0.377763
RightToeBase -0.310910 -0.000000 0.000000
1224
root 18.957144 5.566074 -15.826413 -214.224247 11.389489 -141.736929
Spine 52.731850 -13.808608 24.447670
Head 22.286127 -14.661947 7.056116
LeftShoulder 0.689475 -14.755689 17.830426
LeftArm -34.384117 9.433083 -100.915462
LeftForeArm -15.160463 -0.000000 56.132497
LeftHand -14.220904 -0.000000 22.902082
LeftHandThumb1 -26.253704 0.000000 33.147579
RightShoulder -11.629457 -18.628960 6.104210
RightArm 3.963759 -28.006276 67.859763
RightForeArm -24.112820 0.000000 47.808438
RightHand -15.043491 0.000000 -16.933298
RightHandThumb1 -24.326973 -0.000000 -32.862282
LeftUpLeg -98.613615 31.014314 -41.534155
LeftLeg 129.362773 -0.000000 -0.000000
LeftFoot 35.569987 20.243222 8.128997
LeftToeBase 23.799567 -0.000000 -0.000000
RightUpLeg -94.007952 -18.067678 -4.443599
RightLeg 148.093730 -0.000000 -0.000000
RightFoot 37.001532 -11.635524 0.684560
RightToeBase -1.885104 -0.000000 0.000000
